<?xml version="1.0" encoding="UTF-8" standalone="no"?>
<!-- Uploaded to: SVG Repo, www.svgrepo.com, Generator: SVG Repo Mixer Tools -->

<svg
   fill="#000000"
   version="1.1"
   id="Capa_1"
   width="800"
   height="800"
   viewBox="0 0 537.794 537.795"
   xml:space="preserve"
   sodipodi:docname="download-icon.svg"
   xmlns:inkscape="http://www.inkscape.org/namespaces/inkscape"
   xmlns:sodipodi="http://sodipodi.sourceforge.net/DTD/sodipodi-0.dtd"
   xmlns="http://www.w3.org/2000/svg"
   xmlns:svg="http://www.w3.org/2000/svg"><defs
   id="defs13" /><sodipodi:namedview
   id="namedview11"
   pagecolor="#505050"
   bordercolor="#eeeeee"
   borderopacity="1"
   inkscape:showpageshadow="0"
   inkscape:pageopacity="0"
   inkscape:pagecheckerboard="0"
   inkscape:deskcolor="#505050"
   showgrid="false"
   inkscape:zoom="1.09625"
   inkscape:cx="400"
   inkscape:cy="400.4561"
   inkscape:window-width="1857"
   inkscape:window-height="1057"
   inkscape:window-x="55"
   inkscape:window-y="-8"
   inkscape:window-maximized="1"
   inkscape:current-layer="Capa_1" />
<g
   id="g8"
   style="fill:#191919;fill-opacity:1">
	<g
   id="g6"
   style="fill:#191919;fill-opacity:1">
		<path
   d="M 463.091,466.114 H 74.854 c -11.857,0 -21.497,9.716 -21.497,21.497 v 28.688 c 0,11.857 9.716,21.496 21.497,21.496 h 388.084 c 11.857,0 21.496,-9.716 21.496,-21.496 v -28.688 c 0.231,-11.934 -9.485,-21.497 -21.343,-21.497 z"
   id="path2"
   style="fill:#191919;fill-opacity:1" />
		<path
   d="m 253.94,427.635 c 4.208,4.208 9.716,6.35 15.147,6.35 5.508,0 11.016,-2.142 15.147,-6.35 L 431.267,280.602 c 8.339,-8.338 8.339,-21.955 0,-30.447 l -20.349,-20.349 c -8.339,-8.339 -21.956,-8.339 -30.447,0 l -75.582,75.659 V 21.497 C 304.889,9.639 295.173,0 283.393,0 H 254.705 C 242.848,0 233.208,9.562 233.208,21.497 V 305.541 L 157.55,229.882 c -8.339,-8.338 -22.032,-8.338 -30.447,0 l -20.349,20.349 c -8.338,8.338 -8.338,22.032 0,30.447 z"
   id="path4"
   style="fill:#191919;fill-opacity:1" />
	</g>
</g>
</svg>
