<?xml version="1.0" encoding="UTF-8"?>
<!-- Generator: Adobe Illustrator 26.2.1, SVG Export Plug-In . SVG Version: 6.00 Build 0)  -->
<!DOCTYPE svg PUBLIC "-//W3C//DTD SVG 1.1//EN" "http://www.w3.org/Graphics/SVG/1.1/DTD/svg11.dtd">
<svg version="1.1" id="svg1431" xmlns:x="http://ns.adobe.com/Extensibility/1.0/" xmlns:i="http://ns.adobe.com/AdobeIllustrator/10.0/" xmlns:graph="http://ns.adobe.com/Graphs/1.0/" inkscape:version="0.92.2 (5c3e80d, 2017-08-06)" sodipodi:docname="Minecraft icon 2021.svg" xmlns:cc="http://creativecommons.org/ns#" xmlns:dc="http://purl.org/dc/elements/1.1/" xmlns:inkscape="http://www.inkscape.org/namespaces/inkscape" xmlns:rdf="http://www.w3.org/1999/02/22-rdf-syntax-ns#" xmlns:sodipodi="http://sodipodi.sourceforge.net/DTD/sodipodi-0.dtd" xmlns:svg="http://www.w3.org/2000/svg" xmlns="http://www.w3.org/2000/svg" xmlns:xlink="http://www.w3.org/1999/xlink" x="0px" y="0px" viewBox="0 0 979.2 1130.7" style="enable-background:new 0 0 979.2 1130.7;" xml:space="preserve">
<style type="text/css">
	.st0{fill:#94E16A;fill-opacity:0.9274;}
	.st1{fill:#7B6E41;fill-opacity:0.9729;}
	.st2{fill:#302E11;fill-opacity:0.9704;}
	.st3{fill:#A5CF6F;}
	.st4{fill:#8DC65F;}
	.st5{fill:#BBD77E;}
	.st6{fill:#A8D071;}
	.st7{fill:#B5D579;}
	.st8{fill:#A6CF6F;}
	.st9{fill:#98C964;}
	.st10{fill:#95C863;}
	.st11{fill:#97C965;}
	.st12{fill:#9CCB69;}
	.st13{fill:#8BC55C;}
	.st14{fill:#90C65F;}
	.st15{fill:#84C256;}
	.st16{fill:#A1CD6B;}
	.st17{fill:#B0D376;}
	.st18{fill:#B5D576;}
	.st19{fill:#9FCC6B;}
	.st20{fill:#A3D087;}
	.st21{fill:#84C471;}
	.st22{fill:#C3DB83;}
	.st23{fill:#AFD275;}
	.st24{fill:#B8D67B;}
	.st25{fill:#C0D980;}
	.st26{fill:#B8D679;}
	.st27{fill:#BED983;}
	.st28{fill:#956C4E;}
	.st29{fill:#78553D;}
	.st30{fill:#6C6C6C;}
	.st31{fill:#629F48;}
	.st32{fill:#67A449;}
	.st33{fill:#6EAA4A;}
	.st34{fill:#583D2B;}
	.st35{fill:#B7845F;}
	.st36{fill:#9BC76E;}
	.st37{fill:#569346;}
	.st38{fill:#81BE5B;}
	.st39{fill:#92BE65;}
	.st40{fill:#75B34F;}
	.st41{fill:#6BA749;}
	.st42{fill:#3C3027;}
	.st43{fill:#4B3D32;}
	.st44{fill:#5C4B3E;}
	.st45{fill:#45663C;}
	.st46{fill:#2C221B;}
	.st47{fill:#365F30;}
	.st48{fill:#3A6332;}
	.st49{fill:#2E532A;}
	.st50{fill:#335B2E;}
	.st51{fill:#3C6635;}
	.st52{fill:#363E48;}
	.st53{fill:#4B6E45;}
	.st54{fill:#386131;}
	.st55{fill:#434D5A;}
	.st56{fill:#416C3B;}
	.st57{fill:#325A2E;}
</style>
<metadata id="metadata1428">
	<rdf:RDF>
		<cc:Work rdf:about="">
			<dc:format>image/svg+xml</dc:format>
			<dc:type rdf:resource="http://purl.org/dc/dcmitype/StillImage"/>
			<dc:title/>
		</cc:Work>
	</rdf:RDF>
	<sfw xmlns="http://ns.adobe.com/SaveForWeb/1.0/">
		<slices/>
		<sliceSourceBounds bottomLeftOrigin="true" height="1125" width="974.3" x="2.5" y="2.8"/>
	</sfw>
</metadata>
<sodipodi:namedview bordercolor="#666666" borderopacity="1.0" fit-margin-bottom="0" fit-margin-left="0" fit-margin-right="0" fit-margin-top="0" id="base" inkscape:current-layer="layer1" inkscape:cx="422.73818" inkscape:cy="499.98835" inkscape:document-units="mm" inkscape:guide-bbox="true" inkscape:pageopacity="0.0" inkscape:pageshadow="2" inkscape:snap-nodes="true" inkscape:window-height="705" inkscape:window-maximized="1" inkscape:window-width="1366" inkscape:window-x="-8" inkscape:window-y="-8" inkscape:zoom="0.49497474" pagecolor="#ffffff" showgrid="false" showguides="false" units="px">
	</sodipodi:namedview>
<g id="layer1" transform="translate(403.78332,-119.84279)" inkscape:groupmode="layer" inkscape:label="Layer 1">
	<g id="g3758">
		<path id="path3749" inkscape:connector-curvature="0" class="st0" d="M85.8,685.2l-487.1-281.3L85.8,122.7L573,403.9L85.8,685.2z"/>
		<path id="path3751" inkscape:connector-curvature="0" class="st1" d="M-401.3,966.4V403.9L85.8,685.2l0,562.5L-401.3,966.4z"/>
		<path id="path3753" inkscape:connector-curvature="0" class="st2" d="M573,966.4l0-562.5L85.8,685.2l0,562.5L573,966.4z"/>
	</g>
	<g id="g3024" transform="matrix(0.55114578,0,0,0.55114578,-341.2296,151.74135)">
		<g id="g3248">
			<path id="rect1452" class="st3" d="M676.6,911.2l98.2-56.7l98.2,56.7l-98.2,56.7L676.6,911.2z"/>
			<path id="rect1454" class="st4" d="M676.6,797.8l98.2-56.7l98.2,56.7l-98.2,56.7L676.6,797.8z"/>
			<path id="rect1456" class="st5" d="M676.6,684.4l98.2-56.7l98.2,56.7l-98.2,56.7L676.6,684.4z"/>
			<path id="rect1458" class="st6" d="M676.6,571l98.2-56.7L873,571l-98.2,56.7L676.6,571z"/>
			<path id="rect1460" class="st7" d="M676.6,457.6l98.2-56.7l98.2,56.7l-98.2,56.7L676.6,457.6z"/>
			<path id="rect1462" class="st8" d="M676.6,344.2l98.2-56.7l98.2,56.7l-98.2,56.7L676.6,344.2z"/>
			<path id="rect1464" class="st9" d="M676.6,230.8l98.2-56.7l98.2,56.7l-98.2,56.7L676.6,230.8z"/>
			<path id="rect1466" class="st4" d="M676.6,117.4l98.2-56.7l98.2,56.7l-98.2,56.7L676.6,117.4z"/>
			<path id="rect1470" class="st3" d="M774.8,854.5l98.2-56.7l98.2,56.7L873,911.2L774.8,854.5z"/>
			<path id="rect1472" class="st5" d="M774.8,741.1l98.2-56.7l98.2,56.7L873,797.8L774.8,741.1z"/>
			<path id="rect1474" class="st10" d="M774.8,627.7L873,571l98.2,56.7L873,684.4L774.8,627.7z"/>
			<path id="rect1476" class="st4" d="M774.8,514.3l98.2-56.7l98.2,56.7L873,571L774.8,514.3z"/>
			<path id="rect1478" class="st4" d="M774.8,400.9l98.2-56.7l98.2,56.7L873,457.6L774.8,400.9z"/>
			<path id="rect1480" class="st4" d="M774.8,287.5l98.2-56.7l98.2,56.7L873,344.2L774.8,287.5z"/>
			<path id="rect1482" class="st8" d="M774.8,174.1l98.2-56.7l98.2,56.7L873,230.8L774.8,174.1z"/>
			<path id="rect1486" class="st3" d="M480.2,797.8l98.2-56.7l98.2,56.7l-98.2,56.7L480.2,797.8z"/>
			<path id="rect1488" class="st3" d="M480.2,684.4l98.2-56.7l98.2,56.7l-98.2,56.7L480.2,684.4z"/>
			<path id="rect1490" class="st4" d="M480.2,571l98.2-56.7l98.2,56.7l-98.2,56.7L480.2,571z"/>
			<path id="rect1492" class="st6" d="M480.2,457.6l98.2-56.7l98.2,56.7l-98.2,56.7L480.2,457.6z"/>
			<path id="rect1494" class="st9" d="M480.2,344.2l98.2-56.7l98.2,56.7l-98.2,56.7L480.2,344.2z"/>
			<path id="rect1496" class="st8" d="M480.2,230.8l98.2-56.7l98.2,56.7l-98.2,56.7L480.2,230.8z"/>
			<path id="rect1500" class="st3" d="M578.4,854.5l98.2-56.7l98.2,56.7l-98.2,56.7L578.4,854.5z"/>
			<path id="rect1502" class="st3" d="M578.4,741.1l98.2-56.7l98.2,56.7l-98.2,56.7L578.4,741.1z"/>
			<path id="rect1504" class="st4" d="M578.4,627.7l98.2-56.7l98.2,56.7l-98.2,56.7L578.4,627.7z"/>
			<path id="rect1506" class="st10" d="M578.4,514.3l98.2-56.7l98.2,56.7L676.6,571L578.4,514.3z"/>
			<path id="rect1508" class="st7" d="M578.4,400.9l98.2-56.7l98.2,56.7l-98.2,56.7L578.4,400.9z"/>
			<path id="rect1510" class="st4" d="M578.4,287.5l98.2-56.7l98.2,56.7l-98.2,56.7L578.4,287.5z"/>
			<path id="rect1512" class="st4" d="M578.4,174.1l98.2-56.7l98.2,56.7l-98.2,56.7L578.4,174.1z"/>
			<path id="rect1520" class="st11" d="M283.8,684.4l98.2-56.7l98.2,56.7L382,741.1L283.8,684.4z"/>
			<path id="rect1522" class="st4" d="M283.8,571l98.2-56.7l98.2,56.7L382,627.7L283.8,571z"/>
			<path id="rect1524" class="st12" d="M283.8,457.6l98.2-56.7l98.2,56.7L382,514.3L283.8,457.6z"/>
			<path id="rect1526" class="st13" d="M283.8,344.2l98.2-56.7l98.2,56.7L382,400.9L283.8,344.2z"/>
			<path id="rect1534" class="st11" d="M382,741.1l98.2-56.7l98.2,56.7l-98.2,56.7L382,741.1z"/>
			<path id="rect1536" class="st3" d="M382,627.7l98.2-56.7l98.2,56.7l-98.2,56.7L382,627.7z"/>
			<path id="rect1538" class="st12" d="M382,514.3l98.2-56.7l98.2,56.7L480.2,571L382,514.3z"/>
			<path id="rect1540" class="st13" d="M382,400.9l98.2-56.7l98.2,56.7l-98.2,56.7L382,400.9z"/>
			<path id="rect1542" class="st7" d="M382,287.5l98.2-56.7l98.2,56.7l-98.2,56.7L382,287.5z"/>
			<path id="rect1550" class="st14" d="M87.4,571l98.2-56.7l98.2,56.7l-98.2,56.7L87.4,571z"/>
			<path id="rect1552" class="st15" d="M87.4,457.6l98.2-56.7l98.2,56.7l-98.2,56.7L87.4,457.6z"/>
			<path id="rect1562" class="st11" d="M185.6,627.7l98.2-56.7l98.2,56.7l-98.2,56.7L185.6,627.7z"/>
			<path id="rect1564" class="st11" d="M185.6,514.3l98.2-56.7l98.2,56.7L283.8,571L185.6,514.3z"/>
			<path id="rect1566" class="st12" d="M185.6,400.9l98.2-56.7l98.2,56.7l-98.2,56.7L185.6,400.9z"/>
			<path id="rect1570" class="st8" d="M-10.8,514.3l98.2-56.7l98.2,56.7L87.4,571L-10.8,514.3z"/>
			<path id="rect1620" class="st4" d="M1167.7,741.1l-98.2-56.7l-98.2,56.7l98.2,56.7L1167.7,741.1z"/>
			<path id="rect1622" class="st10" d="M1167.7,627.7l-98.2-56.7l-98.2,56.7l98.2,56.7L1167.7,627.7z"/>
			<path id="rect1624" class="st4" d="M1167.7,514.3l-98.2-56.7l-98.2,56.7l98.2,56.7L1167.7,514.3z"/>
			<path id="rect1626" class="st16" d="M1167.7,400.9l-98.2-56.7l-98.2,56.7l98.2,56.7L1167.7,400.9z"/>
			<path id="rect1628" class="st16" d="M1167.7,287.5l-98.2-56.7l-98.2,56.7l98.2,56.7L1167.7,287.5z"/>
			<path id="rect1630" class="st4" d="M1462.3,571l-98.2-56.7l-98.2,56.7l98.2,56.7L1462.3,571z"/>
			<path id="rect1634" class="st3" d="M1069.5,797.8l-98.2-56.7L873,797.8l98.2,56.7L1069.5,797.8z"/>
			<path id="rect1636" class="st10" d="M1069.5,684.4l-98.2-56.7L873,684.4l98.2,56.7L1069.5,684.4z"/>
			<path id="rect1638" class="st7" d="M1069.5,571l-98.2-56.7L873,571l98.2,56.7L1069.5,571z"/>
			<path id="rect1640" class="st7" d="M1069.5,457.6l-98.2-56.7L873,457.6l98.2,56.7L1069.5,457.6z"/>
			<path id="rect1642" class="st16" d="M1069.5,344.2l-98.2-56.7L873,344.2l98.2,56.7L1069.5,344.2z"/>
			<path id="rect1644" class="st4" d="M1069.5,230.8l-98.2-56.7L873,230.8l98.2,56.7L1069.5,230.8z"/>
			<path id="rect1650" class="st8" d="M1364.1,627.7l-98.2-56.7l-98.2,56.7l98.2,56.7L1364.1,627.7z"/>
			<path id="rect1652" class="st8" d="M1364.1,514.3l-98.2-56.7l-98.2,56.7l98.2,56.7L1364.1,514.3z"/>
			<path id="rect1654" class="st8" d="M1364.1,400.9l-98.2-56.7l-98.2,56.7l98.2,56.7L1364.1,400.9z"/>
			<path id="rect1656" class="st9" d="M1462.3,457.6l-98.2-56.7l-98.2,56.7l98.2,56.7L1462.3,457.6z"/>
			<path id="rect1662" class="st17" d="M1265.9,684.4l-98.2-56.7l-98.2,56.7l98.2,56.7L1265.9,684.4z"/>
			<path id="rect1664" class="st8" d="M1265.9,571l-98.2-56.7l-98.2,56.7l98.2,56.7L1265.9,571z"/>
			<path id="rect1666" class="st18" d="M1265.9,457.6l-98.2-56.7l-98.2,56.7l98.2,56.7L1265.9,457.6z"/>
			<path id="rect1668" class="st9" d="M1265.9,344.2l-98.2-56.7l-98.2,56.7l98.2,56.7L1265.9,344.2z"/>
			<path id="rect1670" class="st19" d="M1560.5,514.3l-98.2-56.7l-98.2,56.7l98.2,56.7L1560.5,514.3z"/>
			<path id="rect1838" inkscape:connector-curvature="0" class="st20" d="M591.3,847.1l-12.8,7.4l98.2,56.7l12.8-7.4L591.3,847.1z"/>
			<path id="path1845" inkscape:connector-curvature="0" class="st20" d="M689.5,903.8l-12.8,7.4l98.1,56.7l0.1-14.8l0,0     L689.5,903.8z"/>
			<path id="path1845_00000095338340242757048700000011569790155151719567_" inkscape:connector-curvature="0" class="st21" d="     M774.9,967.9l12.8-7.4l85.4-49.3l-12.8-7.4l-85.4,49.3V967.9z"/>
			<path id="path1850" inkscape:connector-curvature="0" class="st20" d="M493,790.4l-12.8,7.4l98.2,56.7l12.8-7.4L493,790.4z"/>
			<path id="path1852" inkscape:connector-curvature="0" class="st20" d="M296.6,677l-12.8,7.4l98.2,56.7l12.8-7.4L296.6,677z"/>
			<path id="path1854" inkscape:connector-curvature="0" class="st20" d="M394.8,733.7l-12.8,7.4l98.2,56.7l12.8-7.4L394.8,733.7z"/>
			<path id="path1862" inkscape:connector-curvature="0" class="st20" d="M198.4,620.3l-12.8,7.4l98.2,56.7l12.8-7.4L198.4,620.3z"/>
			<path id="path1864" inkscape:connector-curvature="0" class="st20" d="M100.2,563.6L87.4,571l98.2,56.7l12.8-7.4L100.2,563.6z"/>
			<path id="path1866" inkscape:connector-curvature="0" class="st20" d="M2,506.9l-12.8,7.4L87.4,571l12.8-7.4L2,506.9z"/>
			<path id="rect1466_00000101787994705438465110000013127146761444195733_" class="st3" d="M578.4,60.7L676.6,4l98.2,56.7     l-98.2,56.7L578.4,60.7z"/>
			<path id="rect1496_00000103958162153839804180000017686211702929030554_" class="st4" d="M382,174.1l98.2-56.7l98.2,56.7     l-98.2,56.7L382,174.1z"/>
			<path id="rect1512_00000106846710226063539030000017232738906463381666_" class="st9" d="M480.2,117.4l98.2-56.7l98.2,56.7     l-98.2,56.7L480.2,117.4z"/>
			<path id="rect1526_00000178884335336330473780000010317652300893593736_" class="st15" d="M185.6,287.5l98.2-56.7l98.2,56.7     l-98.2,56.7L185.6,287.5z"/>
			<path id="rect1542_00000027585345864248664390000014046484945177222302_" class="st22" d="M283.8,230.8l98.2-56.7l98.2,56.7     L382,287.5L283.8,230.8z"/>
			<path id="rect1552_00000132067467441811704950000005938628477435315608_" class="st4" d="M-10.8,400.9l98.2-56.7l98.2,56.7     l-98.2,56.7L-10.8,400.9z"/>
			<path id="rect1566_00000062900634056289119990000002191841720814042761_" class="st12" d="M87.4,344.2l98.2-56.7l98.2,56.7     l-98.2,56.7L87.4,344.2z"/>
			<path id="rect1570_00000141435474320664656930000000125171235394876596_" class="st23" d="M-109,457.6l98.2-56.7l98.2,56.7     l-98.2,56.7L-109,457.6z"/>
			<path id="path1866_00000178183440693802857530000018055861876409978289_" inkscape:connector-curvature="0" class="st20" d="     M-96.2,450.2l-12.8,7.4l98.2,56.7L2,506.9L-96.2,450.2z"/>
			<g>
				<polygon class="st20" points="689.5,889 591.3,832.3 578.5,839.7 676.7,896.4 774.9,953.1 774.9,938.3     "/>
				<polygon class="st20" points="493,775.6 394.8,718.9 296.6,662.2 198.4,605.5 100.2,548.8 2,492.1 -83.4,442.8 -96.2,450.2       -10.8,499.5 87.4,556.2 185.6,612.9 283.8,669.6 382,726.3 480.2,783 578.4,839.7 591.2,832.3     "/>
			</g>
			<path id="path1868" inkscape:connector-curvature="0" class="st21" d="M958.4,847.1l12.8,7.4L873,911.2l-12.8-7.4L958.4,847.1z"/>
			<path id="path1870" inkscape:connector-curvature="0" class="st21" d="M1056.6,790.4l12.8,7.4l-98.2,56.7l-12.8-7.4L1056.6,790.4     z"/>
			<path id="path1872" inkscape:connector-curvature="0" class="st21" d="M1253,677l12.8,7.4l-98.2,56.7l-12.8-7.4L1253,677z"/>
			<path id="path1874" inkscape:connector-curvature="0" class="st21" d="M1154.8,733.7l12.8,7.4l-98.2,56.7l-12.8-7.4L1154.8,733.7     z"/>
			<path id="path1876" inkscape:connector-curvature="0" class="st21" d="M1351.3,620.3l12.8,7.4l-98.2,56.7L1253,677L1351.3,620.3z     "/>
			<path id="path1878" inkscape:connector-curvature="0" class="st21" d="M1449.5,563.6l12.8,7.4l-98.2,56.7l-12.8-7.4L1449.5,563.6     z"/>
			<path id="path1880" inkscape:connector-curvature="0" class="st21" d="M1547.7,506.9l12.8,7.4l-98.2,56.7l-12.8-7.4L1547.7,506.9     z"/>
			<path id="rect1466_00000039815600106066791030000010937152683824368790_" class="st10" d="M774.8,60.7L873,4l98.2,56.7L873,117.4     L774.8,60.7z"/>
			<path id="rect1482_00000153696416099296304760000008446314938821013156_" class="st24" d="M873,117.4l98.2-56.7l98.2,56.7     l-98.2,56.7L873,117.4z"/>
			<path id="rect1628_00000183226529434764449760000002367939799772317372_" class="st18" d="M1265.9,230.8l-98.2-56.7l-98.2,56.7     l98.2,56.7L1265.9,230.8z"/>
			<path id="rect1644_00000127026454888269129680000010115012935377327287_" class="st4" d="M1167.7,174.1l-98.2-56.7l-98.2,56.7     l98.2,56.7L1167.7,174.1z"/>
			<path id="rect1654_00000110461081151453409840000000864007432027507629_" class="st25" d="M1462.3,344.2l-98.2-56.7l-98.2,56.7     l98.2,56.7L1462.3,344.2z"/>
			<path id="rect1656_00000021112107918782852080000004456525404538803373_" class="st8" d="M1560.5,400.9l-98.2-56.7l-98.2,56.7     l98.2,56.7L1560.5,400.9z"/>
			<path id="rect1668_00000036252133145249237740000017081484113871105416_" class="st26" d="M1364.1,287.5l-98.2-56.7l-98.2,56.7     l98.2,56.7L1364.1,287.5z"/>
			<path id="rect1670_00000115499921907831253690000006209485324776676753_" class="st4" d="M1658.7,457.6l-98.2-56.7l-98.2,56.7     l98.2,56.7L1658.7,457.6z"/>
			<path id="rect1466_00000090279456043147108590000001875480832626859438_" class="st27" d="M676.6,4l98.2-56.7L873,4l-98.2,56.7     L676.6,4z"/>
			<path id="path1880_00000159441290328255919890000001885400754638403973_" inkscape:connector-curvature="0" class="st21" d="     M1645.9,450.2l12.8,7.4l-98.2,56.7l-12.8-7.4L1645.9,450.2z"/>
			<g>
				<polygon class="st21" points="958.4,832.3 958.4,832.3 860.2,889 860.2,889 774.9,938.3 774.9,953.1 787.7,945.7 873.1,896.4       873,896.4 971.2,839.7 971.2,839.7 1069.4,783 1056.6,775.6     "/>
				<polygon class="st21" points="1056.6,775.6 1069.4,783 1167.6,726.3 1265.8,669.6 1253,662.2 1154.8,718.9     "/>
				<polygon class="st21" points="1449.5,548.8 1351.3,605.5 1253,662.2 1265.9,669.6 1364.1,612.9 1462.3,556.2 1560.5,499.5       1547.7,492.1     "/>
				<polygon class="st21" points="1633.1,442.8 1547.7,492.1 1560.5,499.5 1645.9,450.2     "/>
			</g>
		</g>
		<g id="g3494">
			<path id="rect1882" class="st28" d="M-10.8,1308.1l98.2,56.7v113.4l-98.2-56.7C-10.8,1421.5-10.8,1308.1-10.8,1308.1z"/>
			<path id="rect1884" class="st29" d="M87.4,1251.4l98.2,56.7v113.4l-98.2-56.7C87.4,1364.8,87.4,1251.4,87.4,1251.4z"/>
			<path id="rect1886" class="st29" d="M185.6,1194.7l98.2,56.7v113.4l-98.2-56.7C185.6,1308.1,185.6,1194.7,185.6,1194.7z"/>
			<path id="rect1888" class="st30" d="M283.8,1138l98.2,56.7v113.4l-98.2-56.7V1138z"/>
			<path id="rect1890" class="st29" d="M382,1081.3l98.2,56.7v113.4l-98.2-56.7V1081.3z"/>
			<path id="rect1892" class="st31" d="M480.2,1024.6l98.2,56.7v113.4l-98.2-56.7V1024.6z"/>
			<path id="rect1894" class="st32" d="M578.4,967.9l98.2,56.7V1138l-98.2-56.7V967.9z"/>
			<path id="rect1896" class="st33" d="M676.6,911.2l98.2,56.7v113.4l-98.2-56.7V911.2z"/>
			<path id="rect1898" class="st34" d="M87.4,1364.8l98.2,56.7v113.4l-98.2-56.7C87.4,1478.2,87.4,1364.8,87.4,1364.8z"/>
			<path id="rect1900" class="st35" d="M185.6,1308.1l98.2,56.7v113.4l-98.2-56.7C185.6,1421.5,185.6,1308.1,185.6,1308.1z"/>
			<path id="rect1902" class="st34" d="M283.8,1251.4l98.2,56.7v113.4l-98.2-56.7V1251.4z"/>
			<path id="rect1904" class="st29" d="M382,1194.7l98.2,56.7v113.4l-98.2-56.7V1194.7z"/>
			<path id="rect1906" class="st34" d="M480.2,1138l98.2,56.7v113.4l-98.2-56.7V1138z"/>
			<path id="rect1908" class="st31" d="M578.4,1081.3l98.2,56.7v113.4l-98.2-56.7V1081.3z"/>
			<path id="rect1910" class="st33" d="M676.6,1024.6l98.2,56.7v113.4l-98.2-56.7V1024.6z"/>
			<path id="rect1912" class="st34" d="M-10.8,1081.3l98.2,56.7v113.4l-98.2-56.7C-10.8,1194.7-10.8,1081.3-10.8,1081.3z"/>
			<path id="rect1914" class="st34" d="M87.4,1024.6l98.2,56.7v113.4L87.4,1138V1024.6z"/>
			<path id="rect1916" class="st33" d="M185.6,967.9l98.2,56.7V1138l-98.2-56.7C185.6,1081.3,185.6,967.9,185.6,967.9z"/>
			<path id="rect1918" class="st36" d="M283.8,911.2l98.2,56.7v113.4l-98.2-56.7V911.2z"/>
			<path id="rect1920" class="st31" d="M382,854.5l98.2,56.7v113.4L382,967.9V854.5z"/>
			<path id="rect1922" class="st31" d="M480.2,797.8l98.2,56.7v113.4l-98.2-56.7V797.8z"/>
			<path id="rect1924" class="st35" d="M-10.8,1194.7l98.2,56.7v113.4l-98.2-56.7C-10.8,1308.1-10.8,1194.7-10.8,1194.7z"/>
			<path id="rect1926" class="st29" d="M87.4,1138l98.2,56.7v113.4l-98.2-56.7C87.4,1251.4,87.4,1138,87.4,1138z"/>
			<path id="rect1928" class="st34" d="M185.6,1081.3l98.2,56.7v113.4l-98.2-56.7C185.6,1194.7,185.6,1081.3,185.6,1081.3z"/>
			<path id="rect1930" class="st34" d="M283.8,1024.6l98.2,56.7v113.4l-98.2-56.7V1024.6z"/>
			<path id="rect1932" class="st34" d="M382,967.9l98.2,56.7V1138l-98.2-56.7V967.9z"/>
			<path id="rect1934" class="st33" d="M480.2,911.2l98.2,56.7v113.4l-98.2-56.7V911.2z"/>
			<path id="rect1936" class="st37" d="M578.4,854.5l98.2,56.7v113.4l-98.2-56.7V854.5z"/>
			<path id="rect1938" class="st33" d="M-10.8,854.5l98.2,56.7v113.4l-98.2-56.7C-10.8,967.9-10.8,854.5-10.8,854.5z"/>
			<path id="rect1940" class="st38" d="M87.4,797.8l98.2,56.7v113.4l-98.2-56.7C87.4,911.2,87.4,797.8,87.4,797.8z"/>
			<path id="rect1942" class="st39" d="M185.6,741.1l98.2,56.7v113.4l-98.2-56.7C185.6,854.5,185.6,741.1,185.6,741.1z"/>
			<path id="rect1944" class="st32" d="M283.8,684.4l98.2,56.7v113.4l-98.2-56.7V684.4z"/>
			<path id="rect1946" class="st34" d="M-10.8,967.9l98.2,56.7V1138l-98.2-56.7C-10.8,1081.3-10.8,967.9-10.8,967.9z"/>
			<path id="rect1948" class="st34" d="M87.4,911.2l98.2,56.7v113.4l-98.2-56.7C87.4,1024.6,87.4,911.2,87.4,911.2z"/>
			<path id="rect1950" class="st39" d="M185.6,854.5l98.2,56.7v113.4l-98.2-56.7C185.6,967.9,185.6,854.5,185.6,854.5z"/>
			<path id="rect1952" class="st40" d="M283.8,797.8l98.2,56.7v113.4l-98.2-56.7V797.8z"/>
			<path id="rect1954" class="st41" d="M382,741.1l98.2,56.7v113.4L382,854.5V741.1z"/>
			<path id="rect1956" class="st31" d="M-10.8,627.7l98.2,56.7v113.4l-98.2-56.7C-10.8,741.1-10.8,627.7-10.8,627.7z"/>
			<path id="rect1958" class="st40" d="M87.4,571l98.2,56.7v113.4l-98.2-56.7C87.4,684.4,87.4,571,87.4,571z"/>
			<path id="rect1960" class="st40" d="M-10.8,741.1l98.2,56.7v113.4l-98.2-56.7C-10.8,854.5-10.8,741.1-10.8,741.1z"/>
			<path id="rect1962" class="st39" d="M87.4,684.4l98.2,56.7v113.4l-98.2-56.7C87.4,797.8,87.4,684.4,87.4,684.4z"/>
			<path id="rect1964" class="st41" d="M185.6,627.7l98.2,56.7v113.4l-98.2-56.7C185.6,741.1,185.6,627.7,185.6,627.7z"/>
			<path id="rect1966" class="st38" d="M-10.8,514.3L87.4,571v113.4l-98.2-56.7C-10.8,627.7-10.8,514.3-10.8,514.3z"/>
			<path id="rect1882_00000048493099909924411330000014796076111130917036_" class="st29" d="M-109,1251.4l98.2,56.7v113.4     l-98.2-56.7V1251.4z"/>
			<path id="rect1912_00000147215469996708782070000001668037553483102614_" class="st34" d="M-109,1024.6l98.2,56.7v113.4     L-109,1138V1024.6z"/>
			<path id="rect1924_00000168117778052422684420000015733121013105180821_" class="st35" d="M-109,1138l98.2,56.7v113.4l-98.2-56.7     V1138z"/>
			<path id="rect1938_00000154405496807738485280000005824915706098763397_" class="st34" d="M-109,797.8l98.2,56.7v113.4     l-98.2-56.7V797.8z"/>
			<path id="rect1946_00000078747754075361066740000007106393444955163528_" class="st29" d="M-109,911.2l98.2,56.7v113.4     l-98.2-56.7V911.2z"/>
			<path id="rect1956_00000012474144565481685180000013555125182850179227_" class="st31" d="M-109,571l98.2,56.7v113.4l-98.2-56.7     V571z"/>
			<path id="rect1960_00000064319408618013655150000015155301766984142490_" class="st34" d="M-109,684.4l98.2,56.7v113.4     l-98.2-56.7V684.4z"/>
			<path id="rect1966_00000103952189905962885460000004251257664610856886_" class="st41" d="M-109,457.6l98.2,56.7v113.4L-109,571     V457.6z"/>
			<path id="rect1968" class="st28" d="M382,1648.3v-113.4l-98.2-56.7v113.4L382,1648.3z"/>
			<path id="rect1970" class="st29" d="M480.2,1591.6v-113.4l-98.2-56.7v113.4L480.2,1591.6z"/>
			<path id="rect1972" class="st29" d="M578.4,1534.9v-113.4l-98.2-56.7v113.4L578.4,1534.9z"/>
			<path id="rect1974" class="st34" d="M676.6,1478.2v-113.4l-98.2-56.7v113.4L676.6,1478.2z"/>
			<path id="rect1976" class="st29" d="M774.8,1421.5v-113.4l-98.2-56.7v113.4L774.8,1421.5z"/>
			<path id="rect1978" class="st28" d="M676.6,1818.4V1705l-98.2-56.7v113.4L676.6,1818.4z"/>
			<path id="rect1980" class="st28" d="M283.8,1591.6v-113.4l-98.2-56.7v113.4L283.8,1591.6z"/>
			<path id="rect1982" class="st35" d="M382,1534.9v-113.4l-98.2-56.7v113.4L382,1534.9z"/>
			<path id="rect1984" class="st29" d="M480.2,1478.2v-113.4l-98.2-56.7v113.4L480.2,1478.2z"/>
			<path id="rect1986" class="st28" d="M578.4,1421.5v-113.4l-98.2-56.7v113.4L578.4,1421.5z"/>
			<path id="rect1988" class="st34" d="M676.6,1364.8v-113.4l-98.2-56.7v113.4L676.6,1364.8z"/>
			<path id="rect1990" class="st34" d="M774.8,1308.1v-113.4l-98.2-56.7v113.4L774.8,1308.1z"/>
			<path id="rect1992" class="st29" d="M578.4,1761.7v-113.4l-98.2-56.7V1705L578.4,1761.7z"/>
			<path id="rect1994" class="st29" d="M676.6,1705v-113.4l-98.2-56.7v113.4L676.6,1705z"/>
			<path id="rect1996" class="st35" d="M774.8,1648.3v-113.4l-98.2-56.7v113.4L774.8,1648.3z"/>
			<path id="rect1998" class="st28" d="M774.8,1761.7v-113.4l-98.2-56.7V1705L774.8,1761.7z"/>
			<path id="rect2000" class="st29" d="M480.2,1705v-113.4l-98.2-56.7v113.4L480.2,1705z"/>
			<path id="rect2002" class="st28" d="M578.4,1648.3v-113.4l-98.2-56.7v113.4L578.4,1648.3z"/>
			<path id="rect2004" class="st29" d="M676.6,1591.6v-113.4l-98.2-56.7v113.4L676.6,1591.6z"/>
			<path id="rect2006" class="st29" d="M774.8,1534.9v-113.4l-98.2-56.7v113.4L774.8,1534.9z"/>
			<path id="rect2008" class="st28" d="M774.8,1875.1v-113.4l-98.2-56.7v113.4L774.8,1875.1z"/>
			<path id="rect1882_00000122720770068023991750000000420942634891058583_" class="st29" d="M-10.8,1421.5l98.2,56.7v113.4     l-98.2-56.7C-10.8,1534.9-10.8,1421.5-10.8,1421.5z"/>
			<path id="rect1898_00000035519047657560460860000012333053360943208872_" class="st28" d="M87.4,1478.2l98.2,56.7v113.4     l-98.2-56.7C87.4,1591.6,87.4,1478.2,87.4,1478.2z"/>
			<path id="rect1882_00000126306822218596753100000004443341630228542368_" class="st34" d="M-109,1364.8l98.2,56.7v113.4     l-98.2-56.7V1364.8z"/>
			<path id="rect1968_00000138543663043738712400000006785231336220159641_" class="st29" d="M382,1761.7v-113.4l-98.2-56.7V1705     L382,1761.7z"/>
			<path id="rect1978_00000085949070061215714150000007005261222833967533_" class="st34" d="M676.6,1931.8v-113.4l-98.2-56.7v113.4     L676.6,1931.8z"/>
			<path id="rect1980_00000136372414948344880030000005282788442474137503_" class="st28" d="M283.8,1705v-113.4l-98.2-56.7v113.4     L283.8,1705z"/>
			<path id="rect1992_00000057851798018256472700000003996398088619767450_" class="st29" d="M578.4,1875.1v-113.4l-98.2-56.7v113.4     L578.4,1875.1z"/>
			<path id="rect2000_00000102526569242485103320000010986448550065058200_" class="st29" d="M480.2,1818.4V1705l-98.2-56.7v113.4     L480.2,1818.4z"/>
			<path id="rect2008_00000120524847770796669170000013571736488252182450_" class="st29" d="M774.8,1988.5v-113.4l-98.2-56.7v113.4     L774.8,1988.5z"/>
		</g>
		<g id="g3740">
			<path id="rect2444" class="st42" d="M774.8,1761.7L873,1705v113.4l-98.2,56.7V1761.7z"/>
			<path id="rect2446" class="st42" d="M873,1591.6l98.2-56.7v113.4L873,1705V1591.6z"/>
			<path id="rect2448" class="st43" d="M971.3,1421.5l98.2-56.7v113.4l-98.2,56.7V1421.5z"/>
			<path id="rect2450" class="st44" d="M1069.5,1251.4l98.2-56.7v113.4l-98.2,56.7V1251.4z"/>
			<path id="rect2452" class="st45" d="M1167.7,1081.3l98.2-56.7V1138l-98.2,56.7V1081.3z"/>
			<path id="rect2454" class="st46" d="M1265.9,911.2l98.2-56.7v113.4l-98.2,56.7V911.2z"/>
			<path id="rect2456" class="st47" d="M1364.1,741.1l98.2-56.7v113.4l-98.2,56.7V741.1z"/>
			<path id="rect2458" class="st47" d="M1462.3,571l98.2-56.7v113.4l-98.2,56.7V571z"/>
			<path id="rect2460" class="st42" d="M873,1705l98.2-56.7v113.4l-98.2,56.7V1705z"/>
			<path id="rect2462" class="st42" d="M971.3,1534.9l98.2-56.7v113.4l-98.2,56.7V1534.9z"/>
			<path id="rect2464" class="st43" d="M1069.5,1364.8l98.2-56.7v113.4l-98.2,56.7V1364.8z"/>
			<path id="rect2466" class="st46" d="M1167.7,1194.7l98.2-56.7v113.4l-98.2,56.7V1194.7z"/>
			<path id="rect2468" class="st46" d="M1265.9,1024.6l98.2-56.7v113.4l-98.2,56.7V1024.6z"/>
			<path id="rect2470" class="st48" d="M1364.1,854.5l98.2-56.7v113.4l-98.2,56.7V854.5z"/>
			<path id="rect2472" class="st49" d="M1462.3,684.4l98.2-56.7v113.4l-98.2,56.7V684.4z"/>
			<path id="rect2474" class="st42" d="M774.8,1534.9l98.2-56.7v113.4l-98.2,56.7V1534.9z"/>
			<path id="rect2476" class="st42" d="M873,1364.8l98.2-56.7v113.4l-98.2,56.7V1364.8z"/>
			<path id="rect2478" class="st46" d="M971.3,1194.7l98.2-56.7v113.4l-98.2,56.7V1194.7z"/>
			<path id="rect2480" class="st50" d="M1069.5,1024.6l98.2-56.7v113.4l-98.2,56.7V1024.6z"/>
			<path id="rect2482" class="st51" d="M1167.7,854.5l98.2-56.7v113.4l-98.2,56.7V854.5z"/>
			<path id="rect2484" class="st51" d="M1265.9,684.4l98.2-56.7v113.4l-98.2,56.7V684.4z"/>
			<path id="rect2486" class="st44" d="M774.8,1648.3l98.2-56.7V1705l-98.2,56.7V1648.3z"/>
			<path id="rect2488" class="st46" d="M873,1478.2l98.2-56.7v113.4l-98.2,56.7V1478.2z"/>
			<path id="rect2490" class="st43" d="M971.3,1308.1l98.2-56.7v113.4l-98.2,56.7V1308.1z"/>
			<path id="rect2492" class="st46" d="M1069.5,1138l98.2-56.7v113.4l-98.2,56.7V1138z"/>
			<path id="rect2494" class="st45" d="M1167.7,967.9l98.2-56.7v113.4l-98.2,56.7V967.9z"/>
			<path id="rect2496" class="st46" d="M1265.9,797.8l98.2-56.7v113.4l-98.2,56.7V797.8z"/>
			<path id="rect2498" class="st49" d="M1364.1,627.7l98.2-56.7v113.4l-98.2,56.7V627.7z"/>
			<path id="rect2500" class="st46" d="M774.8,1308.1l98.2-56.7v113.4l-98.2,56.7V1308.1z"/>
			<path id="rect2502" class="st46" d="M873,1138l98.2-56.7v113.4l-98.2,56.7V1138z"/>
			<path id="rect2504" class="st51" d="M971.3,967.9l98.2-56.7v113.4l-98.2,56.7V967.9z"/>
			<path id="rect2506" class="st50" d="M1069.5,797.8l98.2-56.7v113.4l-98.2,56.7V797.8z"/>
			<path id="rect2508" class="st43" d="M774.8,1421.5l98.2-56.7v113.4l-98.2,56.7V1421.5z"/>
			<path id="rect2510" class="st52" d="M873,1251.4l98.2-56.7v113.4l-98.2,56.7V1251.4z"/>
			<path id="rect2512" class="st53" d="M971.3,1081.3l98.2-56.7V1138l-98.2,56.7V1081.3z"/>
			<path id="rect2514" class="st51" d="M1069.5,911.2l98.2-56.7v113.4l-98.2,56.7V911.2z"/>
			<path id="rect2516" class="st50" d="M1167.7,741.1l98.2-56.7v113.4l-98.2,56.7V741.1z"/>
			<path id="rect2518" class="st51" d="M774.8,1081.3l98.2-56.7V1138l-98.2,56.7V1081.3z"/>
			<path id="rect2520" class="st51" d="M873,911.2l98.2-56.7v113.4l-98.2,56.7V911.2z"/>
			<path id="rect2522" class="st51" d="M774.8,1194.7L873,1138v113.4l-98.2,56.7V1194.7z"/>
			<path id="rect2524" class="st54" d="M873,1024.6l98.2-56.7v113.4L873,1138V1024.6z"/>
			<path id="rect2526" class="st51" d="M971.3,854.5l98.2-56.7v113.4l-98.2,56.7V854.5z"/>
			<path id="rect2528" class="st51" d="M774.8,967.9l98.2-56.7v113.4l-98.2,56.7V967.9z"/>
			<path id="rect2530" class="st44" d="M1167.7,1648.3v-113.4l-98.2,56.7V1705L1167.7,1648.3z"/>
			<path id="rect2532" class="st55" d="M1265.9,1478.2v-113.4l-98.2,56.7v113.4L1265.9,1478.2z"/>
			<path id="rect2534" class="st43" d="M1364.1,1308.1v-113.4l-98.2,56.7v113.4L1364.1,1308.1z"/>
			<path id="rect2536" class="st42" d="M1462.3,1138v-113.4l-98.2,56.7v113.4L1462.3,1138z"/>
			<path id="rect2538" class="st46" d="M1560.5,967.9V854.5l-98.2,56.7v113.4L1560.5,967.9z"/>
			<path id="rect2540" class="st42" d="M1462.3,1478.2v-113.4l-98.2,56.7v113.4L1462.3,1478.2z"/>
			<path id="rect2542" class="st44" d="M1069.5,1705v-113.4l-98.2,56.7v113.4L1069.5,1705z"/>
			<path id="rect2544" class="st42" d="M1167.7,1534.9v-113.4l-98.2,56.7v113.4L1167.7,1534.9z"/>
			<path id="rect2546" class="st42" d="M1265.9,1364.8v-113.4l-98.2,56.7v113.4L1265.9,1364.8z"/>
			<path id="rect2548" class="st43" d="M1364.1,1194.7v-113.4l-98.2,56.7v113.4L1364.1,1194.7z"/>
			<path id="rect2550" class="st46" d="M1462.3,1024.6V911.2l-98.2,56.7v113.4L1462.3,1024.6z"/>
			<path id="rect2552" class="st46" d="M1560.5,854.5V741.1l-98.2,56.7v113.4L1560.5,854.5z"/>
			<path id="rect2554" class="st43" d="M1364.1,1534.9v-113.4l-98.2,56.7v113.4L1364.1,1534.9z"/>
			<path id="rect2556" class="st42" d="M1462.3,1364.8v-113.4l-98.2,56.7v113.4L1462.3,1364.8z"/>
			<path id="rect2558" class="st46" d="M1560.5,1194.7v-113.4l-98.2,56.7v113.4L1560.5,1194.7z"/>
			<path id="rect2560" class="st44" d="M1560.5,1308.1v-113.4l-98.2,56.7v113.4L1560.5,1308.1z"/>
			<path id="rect2562" class="st43" d="M1265.9,1591.6v-113.4l-98.2,56.7v113.4L1265.9,1591.6z"/>
			<path id="rect2564" class="st42" d="M1364.1,1421.5v-113.4l-98.2,56.7v113.4L1364.1,1421.5z"/>
			<path id="rect2566" class="st46" d="M1462.3,1251.4V1138l-98.2,56.7v113.4L1462.3,1251.4z"/>
			<path id="rect2568" class="st42" d="M1560.5,1081.3V967.9l-98.2,56.7V1138L1560.5,1081.3z"/>
			<path id="rect2570" class="st42" d="M1560.5,1421.5v-113.4l-98.2,56.7v113.4L1560.5,1421.5z"/>
			<path id="rect2458_00000029003775274046860470000001068973818862434987_" class="st56" d="M1560.5,514.3l98.2-56.7V571     l-98.2,56.7V514.3z"/>
			<path id="rect2472_00000026153746515594690320000014009400444275734712_" class="st49" d="M1560.5,627.7l98.2-56.7v113.4     l-98.2,56.7V627.7z"/>
			<path id="rect2538_00000171687212973637967680000001827607560133646479_" class="st57" d="M1658.7,911.2V797.8l-98.2,56.7v113.4     L1658.7,911.2z"/>
			<path id="rect2552_00000098935876281494809420000016674422229595426436_" class="st51" d="M1658.7,797.8V684.4l-98.2,56.7v113.4     L1658.7,797.8z"/>
			<path id="rect2558_00000096771158470232861140000010369851920411507354_" class="st46" d="M1658.7,1138v-113.4l-98.2,56.7v113.4     L1658.7,1138z"/>
			<path id="rect2560_00000136377230682876271570000001632986623738149008_" class="st44" d="M1658.7,1251.4V1138l-98.2,56.7v113.4     L1658.7,1251.4z"/>
			<path id="rect2568_00000072269490830160451430000013342603198132378251_" class="st46" d="M1658.7,1024.6V911.2l-98.2,56.7v113.4     L1658.7,1024.6z"/>
			<path id="rect2570_00000042006131055349971800000008220258777791655311_" class="st43" d="M1658.7,1364.8v-113.4l-98.2,56.7     v113.4L1658.7,1364.8z"/>
			<path id="rect2444_00000127035318581177125630000010025525344299456934_" class="st43" d="M774.8,1875.1l98.2-56.7v113.4     l-98.2,56.7V1875.1z"/>
			<path id="rect2460_00000166654856217219806700000011595577995976938160_" class="st42" d="M873,1818.4l98.2-56.7v113.4     l-98.2,56.7V1818.4z"/>
			<path id="rect2530_00000035515198913643288850000004349996141808405677_" class="st43" d="M1167.7,1761.7v-113.4l-98.2,56.7     v113.4L1167.7,1761.7z"/>
			<path id="rect2540_00000106143818793968822390000000853779056966019260_" class="st42" d="M1462.3,1591.6v-113.4l-98.2,56.7     v113.4L1462.3,1591.6z"/>
			<path id="rect2542_00000057836955479783364690000000088022497188527546_" class="st42" d="M1069.5,1818.4V1705l-98.2,56.7v113.4     L1069.5,1818.4z"/>
			<path id="rect2554_00000103232025964323468950000014863338811363647156_" class="st43" d="M1364.1,1648.3v-113.4l-98.2,56.7V1705     L1364.1,1648.3z"/>
			<path id="rect2562_00000138550417975431972150000006901944846411318917_" class="st42" d="M1265.9,1705v-113.4l-98.2,56.7v113.4     L1265.9,1705z"/>
			<path id="rect2570_00000158015332181373754220000004086912013297154190_" class="st46" d="M1560.5,1534.9v-113.4l-98.2,56.7     v113.4L1560.5,1534.9z"/>
			<path id="rect2570_00000105390338106931081090000016335117196894795437_" class="st42" d="M1658.7,1478.2v-113.4l-98.2,56.7     v113.4L1658.7,1478.2z"/>
		</g>
	</g>
</g>
</svg>